<svg width="16" height="17" viewBox="0 0 16 17" fill="none" xmlns="http://www.w3.org/2000/svg">
<path d="M13.5306 7.03063L8.53063 12.0306C8.46095 12.1005 8.37816 12.156 8.28699 12.1939C8.19583 12.2317 8.09809 12.2512 7.99938 12.2512C7.90067 12.2512 7.80293 12.2317 7.71176 12.1939C7.6206 12.156 7.53781 12.1005 7.46813 12.0306L2.46813 7.03063C2.32723 6.88973 2.24808 6.69864 2.24808 6.49938C2.24808 6.30012 2.32723 6.10902 2.46813 5.96813C2.60902 5.82723 2.80012 5.74808 2.99938 5.74808C3.19864 5.74808 3.38973 5.82723 3.53063 5.96813L8 10.4375L12.4694 5.9675C12.6103 5.82661 12.8014 5.74745 13.0006 5.74745C13.1999 5.74745 13.391 5.82661 13.5319 5.9675C13.6728 6.1084 13.7519 6.2995 13.7519 6.49875C13.7519 6.69801 13.6728 6.88911 13.5319 7.03L13.5306 7.03063Z" fill="black"/>
</svg>
